<svg id="bold" enable-background="new 0 0 24 24" height="512" viewBox="0 0 24 24" width="512" xmlns="http://www.w3.org/2000/svg"><g><g><g><path d="m2.858.956-2.776 3.954c-.054.106-.074.223-.074.338h-.008v.752h.75 1.435 7.065v-6h-4.833c-.661 0-1.259.366-1.559.956z"/></g></g></g><g><g><g><path d="m19.998 5.256c.002-.127-.028-.253-.091-.368l-3.02-3.982c-.307-.559-.895-.906-1.533-.906h-4.604v6h6.676 1.824.75v-.744z"/></g></g></g><g><g><g><path d="m8.01 19.801c-.072-.958.275-1.897.955-2.576.521-.523 1.188-.852 1.908-.948 0 0-.943-.5-.975-.519-.907-.544-1.5-1.445-1.627-2.471-.123-1.033.225-2.038.952-2.765.604-.607 1.413-.944 2.273-.944.23 0 .462.025.688.074l5.406 1.146 1.536-1.631c.247-.26.55-.467.874-.645v-1.522h-20v11.25c0 .965.785 1.75 1.75 1.75h6.297c-.01-.067-.032-.131-.037-.199z"/></g></g></g><g><g><g><path d="m14.463 24c-.034 0-.067-.001-.101-.004-.376-.029-.72-.221-.942-.526l-1.162-1.592-1.733-1.284c-.303-.224-.494-.568-.522-.943s.108-.744.374-1.01c.391-.392.97-.502 1.479-.28l1.075.47 2.319-2.5-4.323-2.288c-.39-.234-.622-.592-.672-1.002-.05-.411.089-.813.381-1.105.294-.295.714-.418 1.123-.33l6.518 1.381 2.306-2.449c.315-.334.828-.53 1.409-.538.636-.018 1.149.181 1.488.52s.528.882.52 1.489c-.008.581-.204 1.094-.537 1.408v.001l-2.457 2.315 1.5 6.592c.097.41-.025.838-.327 1.14-.29.291-.694.432-1.099.382-.409-.048-.767-.276-.982-.627l-2.419-4.471-2.494 2.319.47 1.077c.222.507.111 1.087-.28 1.479-.243.241-.571.376-.912.376z"/></g></g></g></svg>