<svg enable-background="new 0 0 24 24" height="512" viewBox="0 0 24 24" width="512" xmlns="http://www.w3.org/2000/svg"><path d="m0 13.75v9.25c0 .552.448 1 1 1h5c.552 0 1-.448 1-1v-9.25c0-.552-.448-1-1-1h-5c-.552 0-1 .448-1 1z"/><path d="m6 0h-5c-.552 0-1 .448-1 1v9.25c0 .552.448 1 1 1h5c.552 0 1-.448 1-1v-9.25c0-.552-.448-1-1-1z"/><path d="m15.5 10.25v-9.25c0-.552-.448-1-1-1h-5c-.552 0-1 .448-1 1v9.25c0 .552.448 1 1 1h5c.552 0 1-.448 1-1z"/><path d="m18 24h5c.552 0 1-.448 1-1v-9.25c0-.552-.448-1-1-1h-5c-.552 0-1 .448-1 1v9.25c0 .552.448 1 1 1z"/><path d="m8.5 13.75v9.25c0 .552.448 1 1 1h5c.552 0 1-.448 1-1v-9.25c0-.552-.448-1-1-1h-5c-.552 0-1 .448-1 1z"/><path d="m23 0h-5c-.552 0-1 .448-1 1v9.25c0 .552.448 1 1 1h5c.552 0 1-.448 1-1v-9.25c0-.552-.448-1-1-1z"/></svg>