<svg xmlns="http://www.w3.org/2000/svg" viewBox="0 0 416 416"><defs><style>.cls-1{fill:none;stroke:#000;stroke-linecap:round;stroke-linejoin:round;stroke-width:15px;}</style></defs><g id="Capa_12" data-name="Capa 12"><path d="M415.54,47.82h-320a48,48,0,0,0-48,48v320a48.05,48.05,0,0,0,48,48h320a48.06,48.06,0,0,0,48-48v-320A48,48,0,0,0,415.54,47.82ZM448.44,398c0,23.71-19.86,42.93-44.33,42.95H108.56c-24.47,0-44.3-19.24-44.33-42.95V111.63c0-23.71,19.86-42.93,44.33-42.95H404.11c24.47,0,44.31,19.24,44.33,42.95Z" transform="translate(-47.54 -47.82)"/></g><g id="Capa_10" data-name="Capa 10"><path d="M305.14,293.49h38.3a4.71,4.71,0,0,1,4.79,4.63v37.11a4.72,4.72,0,0,1-4.79,4.64h-38.3a4.71,4.71,0,0,1-4.78-4.64V298.12A4.7,4.7,0,0,1,305.14,293.49Z" transform="translate(-47.54 -47.82)"/><path d="M266.85,256.38h28.72a4.72,4.72,0,0,1,4.79,4.64v27.83a4.72,4.72,0,0,1-4.79,4.64H266.85a4.72,4.72,0,0,1-4.79-4.64V261A4.72,4.72,0,0,1,266.85,256.38Z" transform="translate(-47.54 -47.82)"/><path d="M353,339.87h28.73a4.71,4.71,0,0,1,4.78,4.64v27.83a4.7,4.7,0,0,1-4.78,4.63H353a4.7,4.7,0,0,1-4.78-4.63V344.51A4.71,4.71,0,0,1,353,339.87Z" transform="translate(-47.54 -47.82)"/><path d="M362.59,256.38h19.15a4.71,4.71,0,0,1,4.78,4.64v18.55a4.71,4.71,0,0,1-4.78,4.64H362.59a4.72,4.72,0,0,1-4.79-4.64V261A4.72,4.72,0,0,1,362.59,256.38Z" transform="translate(-47.54 -47.82)"/><path d="M266.85,349.14H286a4.71,4.71,0,0,1,4.78,4.64v18.56A4.7,4.7,0,0,1,286,377H266.85a4.71,4.71,0,0,1-4.79-4.63V353.78A4.72,4.72,0,0,1,266.85,349.14Z" transform="translate(-47.54 -47.82)"/><path d="M305.14,154.34h38.3a4.72,4.72,0,0,1,4.79,4.64v37.1a4.72,4.72,0,0,1-4.79,4.64h-38.3a4.71,4.71,0,0,1-4.78-4.64V159A4.71,4.71,0,0,1,305.14,154.34Z" transform="translate(-47.54 -47.82)"/><path class="cls-1" d="M281.21,126.51h86.17a9.43,9.43,0,0,1,9.57,9.28v83.48a9.43,9.43,0,0,1-9.57,9.28H281.21a9.42,9.42,0,0,1-9.57-9.28V135.79A9.42,9.42,0,0,1,281.21,126.51Z" transform="translate(-47.54 -47.82)"/><path d="M161.53,154.34h38.3a4.72,4.72,0,0,1,4.79,4.64v37.1a4.72,4.72,0,0,1-4.79,4.64h-38.3a4.71,4.71,0,0,1-4.78-4.64V159A4.71,4.71,0,0,1,161.53,154.34Z" transform="translate(-47.54 -47.82)"/><path class="cls-1" d="M137.6,126.51h86.16a9.43,9.43,0,0,1,9.58,9.28v83.48a9.43,9.43,0,0,1-9.58,9.28H137.6a9.43,9.43,0,0,1-9.58-9.28V135.79A9.43,9.43,0,0,1,137.6,126.51Z" transform="translate(-47.54 -47.82)"/><path d="M161.53,293.49h38.3a4.71,4.71,0,0,1,4.79,4.63v37.11a4.72,4.72,0,0,1-4.79,4.64h-38.3a4.71,4.71,0,0,1-4.78-4.64V298.12A4.7,4.7,0,0,1,161.53,293.49Z" transform="translate(-47.54 -47.82)"/><path class="cls-1" d="M137.6,265.66h86.16a9.43,9.43,0,0,1,9.58,9.27v83.49a9.44,9.44,0,0,1-9.58,9.28H137.6a9.44,9.44,0,0,1-9.58-9.28V274.93A9.43,9.43,0,0,1,137.6,265.66Z" transform="translate(-47.54 -47.82)"/></g></svg>