<svg xmlns="http://www.w3.org/2000/svg" viewBox="0 0 416 416"><defs><style>.cls-1{fill:none;stroke:#000;stroke-linecap:round;stroke-linejoin:round;stroke-width:15px;}</style></defs><g id="Capa_4" data-name="Capa 4"><path d="M295.16,229.34h28.7a3.64,3.64,0,0,1,3.59,3.69v29.49a3.64,3.64,0,0,1-3.59,3.69h-28.7a3.64,3.64,0,0,1-3.59-3.69V233A3.64,3.64,0,0,1,295.16,229.34Z" transform="translate(-47.54 -47.82)"/><path d="M266.45,199.84H288a3.64,3.64,0,0,1,3.59,3.69v22.12a3.64,3.64,0,0,1-3.59,3.69H266.45a3.64,3.64,0,0,1-3.59-3.69V203.53A3.64,3.64,0,0,1,266.45,199.84Z" transform="translate(-47.54 -47.82)"/><path d="M331,266.21h21.53a3.64,3.64,0,0,1,3.59,3.69V292a3.64,3.64,0,0,1-3.59,3.69H331a3.64,3.64,0,0,1-3.59-3.69V269.9A3.64,3.64,0,0,1,331,266.21Z" transform="translate(-47.54 -47.82)"/><path d="M338.22,199.84h14.35a3.64,3.64,0,0,1,3.59,3.69v14.75a3.64,3.64,0,0,1-3.59,3.68H338.22a3.64,3.64,0,0,1-3.59-3.68V203.53A3.64,3.64,0,0,1,338.22,199.84Z" transform="translate(-47.54 -47.82)"/><path d="M266.45,273.58H280.8a3.65,3.65,0,0,1,3.59,3.69V292a3.64,3.64,0,0,1-3.59,3.69H266.45a3.64,3.64,0,0,1-3.59-3.69V277.27A3.65,3.65,0,0,1,266.45,273.58Z" transform="translate(-47.54 -47.82)"/><path d="M295.16,118.72h28.7a3.64,3.64,0,0,1,3.59,3.69v29.5a3.63,3.63,0,0,1-3.59,3.68h-28.7a3.63,3.63,0,0,1-3.59-3.68v-29.5A3.64,3.64,0,0,1,295.16,118.72Z" transform="translate(-47.54 -47.82)"/><path class="cls-1" d="M277.21,96.6h64.6A7.27,7.27,0,0,1,349,104v66.37a7.27,7.27,0,0,1-7.17,7.38h-64.6a7.27,7.27,0,0,1-7.17-7.38V104A7.27,7.27,0,0,1,277.21,96.6Z" transform="translate(-47.54 -47.82)"/><path d="M187.5,118.72h28.71a3.64,3.64,0,0,1,3.59,3.69v29.5a3.64,3.64,0,0,1-3.59,3.68H187.5a3.64,3.64,0,0,1-3.59-3.68v-29.5A3.64,3.64,0,0,1,187.5,118.72Z" transform="translate(-47.54 -47.82)"/><path class="cls-1" d="M169.56,96.6h64.59a7.27,7.27,0,0,1,7.18,7.37v66.37a7.28,7.28,0,0,1-7.18,7.38H169.56a7.28,7.28,0,0,1-7.18-7.38V104A7.28,7.28,0,0,1,169.56,96.6Z" transform="translate(-47.54 -47.82)"/><path d="M187.5,229.34h28.71A3.64,3.64,0,0,1,219.8,233v29.49a3.64,3.64,0,0,1-3.59,3.69H187.5a3.64,3.64,0,0,1-3.59-3.69V233A3.64,3.64,0,0,1,187.5,229.34Z" transform="translate(-47.54 -47.82)"/><path class="cls-1" d="M169.56,207.21h64.59a7.28,7.28,0,0,1,7.18,7.38V281a7.27,7.27,0,0,1-7.18,7.37H169.56a7.28,7.28,0,0,1-7.18-7.37V214.59A7.29,7.29,0,0,1,169.56,207.21Z" transform="translate(-47.54 -47.82)"/></g><g id="Capa_7" data-name="Capa 7"><path d="M415.54,47.82h-320a48,48,0,0,0-48,48v320a48.05,48.05,0,0,0,48,48h320a48.06,48.06,0,0,0,48-48v-320A48,48,0,0,0,415.54,47.82Zm-298.36,370a29.5,29.5,0,1,1,29.5-29.5A29.5,29.5,0,0,1,117.18,417.78Zm263.3-17.5H178a14.5,14.5,0,0,1,0-29h202.5a14.5,14.5,0,0,1,0,29ZM441,288.65a24,24,0,0,1-24,24H97a24,24,0,0,1-24-24v-185a24,24,0,0,1,24-24H417a24,24,0,0,1,24,24Z" transform="translate(-47.54 -47.82)"/></g></svg>