<svg xmlns="http://www.w3.org/2000/svg" viewBox="0 0 431.52 448.82"><defs><style>.cls-1{fill:none;stroke:#000;stroke-linecap:round;stroke-linejoin:round;stroke-width:15px;}</style></defs><g id="Capa_9" data-name="Capa 9"><path d="M422,77.66H323.74a68.37,68.37,0,1,1-134.81,0H90c-27.48,0-49.76,20.84-49.79,46.53V434.36c0,25.68,22.31,46.49,49.79,46.52H422c27.48,0,49.76-20.84,49.79-46.52V124.19C471.74,98.5,449.46,77.69,422,77.66ZM448.39,378.8c0,12.85-11.15,23.26-24.89,23.26H91.56c-13.75,0-24.9-10.41-24.9-23.26V199.48c0-12.84,11.15-23.26,24.9-23.26H423.5c13.74,0,24.89,10.42,24.89,23.26Z" transform="translate(-40.25 -32.06)"/><ellipse cx="216.88" cy="56.82" rx="56.7" ry="56.82"/></g><g id="Capa_8" data-name="Capa 8"><path d="M292.4,319.35h25.51a3.18,3.18,0,0,1,3.19,3.17v25.32a3.17,3.17,0,0,1-3.19,3.16H292.4a3.17,3.17,0,0,1-3.19-3.16V322.52A3.18,3.18,0,0,1,292.4,319.35Z" transform="translate(-40.25 -32.06)"/><path d="M266.88,294H286a3.18,3.18,0,0,1,3.19,3.16v19a3.17,3.17,0,0,1-3.19,3.16H266.88a3.17,3.17,0,0,1-3.19-3.16v-19A3.18,3.18,0,0,1,266.88,294Z" transform="translate(-40.25 -32.06)"/><path d="M324.29,351h19.14a3.18,3.18,0,0,1,3.19,3.16v19a3.18,3.18,0,0,1-3.19,3.17H324.29a3.18,3.18,0,0,1-3.19-3.17v-19A3.18,3.18,0,0,1,324.29,351Z" transform="translate(-40.25 -32.06)"/><path d="M330.67,294h12.76a3.18,3.18,0,0,1,3.19,3.16v12.66a3.18,3.18,0,0,1-3.19,3.17H330.67a3.18,3.18,0,0,1-3.19-3.17V297.2A3.18,3.18,0,0,1,330.67,294Z" transform="translate(-40.25 -32.06)"/><path d="M266.88,357.33h12.76a3.18,3.18,0,0,1,3.19,3.16v12.66a3.18,3.18,0,0,1-3.19,3.17H266.88a3.18,3.18,0,0,1-3.19-3.17V360.49A3.18,3.18,0,0,1,266.88,357.33Z" transform="translate(-40.25 -32.06)"/><path d="M292.4,224.42h25.51a3.17,3.17,0,0,1,3.19,3.16V252.9a3.17,3.17,0,0,1-3.19,3.16H292.4a3.17,3.17,0,0,1-3.19-3.16V227.58A3.17,3.17,0,0,1,292.4,224.42Z" transform="translate(-40.25 -32.06)"/><path class="cls-1" d="M276.45,205.43h57.41a6.35,6.35,0,0,1,6.38,6.33v57a6.35,6.35,0,0,1-6.38,6.33H276.45a6.35,6.35,0,0,1-6.38-6.33v-57A6.35,6.35,0,0,1,276.45,205.43Z" transform="translate(-40.25 -32.06)"/><path d="M196.7,224.42h25.52a3.18,3.18,0,0,1,3.19,3.16V252.9a3.17,3.17,0,0,1-3.19,3.16H196.7a3.17,3.17,0,0,1-3.19-3.16V227.58A3.18,3.18,0,0,1,196.7,224.42Z" transform="translate(-40.25 -32.06)"/><path class="cls-1" d="M180.75,205.43h57.42a6.36,6.36,0,0,1,6.38,6.33v57a6.35,6.35,0,0,1-6.38,6.33H180.75a6.35,6.35,0,0,1-6.38-6.33v-57A6.36,6.36,0,0,1,180.75,205.43Z" transform="translate(-40.25 -32.06)"/><path d="M196.7,319.35h25.52a3.18,3.18,0,0,1,3.19,3.17v25.32a3.18,3.18,0,0,1-3.19,3.16H196.7a3.18,3.18,0,0,1-3.19-3.16V322.52A3.18,3.18,0,0,1,196.7,319.35Z" transform="translate(-40.25 -32.06)"/><path class="cls-1" d="M180.75,300.37h57.42a6.35,6.35,0,0,1,6.38,6.33v57a6.36,6.36,0,0,1-6.38,6.33H180.75a6.36,6.36,0,0,1-6.38-6.33v-57A6.35,6.35,0,0,1,180.75,300.37Z" transform="translate(-40.25 -32.06)"/></g></svg>