<svg xmlns="http://www.w3.org/2000/svg" viewBox="0 0 479.9 252.79"><g id="Capa_2" data-name="Capa 2"><path d="M440.53,128.78H71.38C40.81,128.79,16,141.84,16,158V352.4c0,16.11,24.81,29.16,55.38,29.17H440.53c30.57,0,55.34-13.06,55.38-29.17V158C495.87,141.84,471.1,128.79,440.53,128.78ZM373.8,317.66c-.13,10.52-17.27,18.91-38.32,18.74L81.36,334.27c-21-.19-38-8.86-37.92-19.38l1.28-127.12C44.85,177.25,62,168.86,83,169l254.13,2.13c21,.19,38,8.86,37.92,19.39Zm102.7-1c-.11,10.53-4.61,19-10.05,19l-65.7-.55c-5.44-.05-9.77-8.62-9.67-19.15l1.29-127.11c.11-10.52,4.61-19,10.05-19l65.7.55c5.44.06,9.77,8.62,9.67,19.15Z" transform="translate(-16 -128.78)"/></g></svg>