<?xml version="1.0" encoding="utf-8"?>
<!-- Generator: Adobe Illustrator 25.0.0, SVG Export Plug-In . SVG Version: 6.00 Build 0)  -->
<svg version="1.1" xmlns="http://www.w3.org/2000/svg" xmlns:xlink="http://www.w3.org/1999/xlink" x="0px" y="0px"
	 viewBox="0 0 512 512" style="enable-background:new 0 0 512 512;" xml:space="preserve">
<style type="text/css">
	.st0{display:none;}
</style>
<g id="Capa_2" class="st0">
</g>
<g id="Capa_4">
</g>
<g id="Capa_1">
	<g>
		<path d="M416,151.9h-44.8c-16.1,47.8-61.3,82.2-114.5,82.2s-98.4-34.4-114.5-82.2H96c-26.5,0-48,16.1-48,36V428
			c0,19.9,21.5,36,48,36h320c26.5,0,48-16.1,48-36V187.9C464,168,442.5,151.9,416,151.9z M111.4,402.2c-13.3,0-24-10.7-24-24
			s10.7-24,24-24s24,10.7,24,24S124.7,402.2,111.4,402.2z M185.1,402.2c-12.4,0-22.5-10.7-22.5-24s10.1-24,22.5-24
			c12.4,0,22.5,10.7,22.5,24S197.5,402.2,185.1,402.2z M256.8,402.2c-12.4,0-22.5-10.7-22.5-24s10.1-24,22.5-24s22.5,10.7,22.5,24
			S269.2,402.2,256.8,402.2z M381.7,323c-1.7,0-3.4-0.2-5-0.5H97.6c-13.3,0-24-10.7-24-24s10.7-24,24-24h283v0.5c0.3,0,0.7,0,1,0
			c13.3,0,24,10.7,24,24S394.9,323,381.7,323z"/>
		<path d="M96.6,322.5"/>
		<path d="M96.6,274.5"/>
		<circle cx="255.2" cy="121.3" r="87.8"/>
	</g>
</g>
</svg>
