<svg xmlns="http://www.w3.org/2000/svg" viewBox="0 0 416 416"><defs><style>.cls-1{fill:none;stroke:#000;stroke-linecap:round;stroke-linejoin:round;stroke-width:15px;}</style></defs><g id="Capa_11" data-name="Capa 11"><path d="M416.54,47.82h-320a48,48,0,0,0-48,48v320a48.05,48.05,0,0,0,48,48h320a48.06,48.06,0,0,0,48-48v-320A48,48,0,0,0,416.54,47.82ZM434.8,331.69a34.11,34.11,0,0,1-34.11,34.11H114.21a34.1,34.1,0,0,1-34.1-34.11v-216a34.1,34.1,0,0,1,34.1-34.11H400.69a34.11,34.11,0,0,1,34.11,34.11Z" transform="translate(-48.54 -47.82)"/></g><g id="Capa_4" data-name="Capa 4"><path d="M298.39,255.15H327.1a3.64,3.64,0,0,1,3.59,3.69v29.49A3.64,3.64,0,0,1,327.1,292H298.39a3.64,3.64,0,0,1-3.59-3.69V258.84A3.64,3.64,0,0,1,298.39,255.15Z" transform="translate(-48.54 -47.82)"/><path d="M269.68,225.65h21.53a3.64,3.64,0,0,1,3.59,3.69v22.12a3.64,3.64,0,0,1-3.59,3.69H269.68a3.64,3.64,0,0,1-3.59-3.69V229.34A3.64,3.64,0,0,1,269.68,225.65Z" transform="translate(-48.54 -47.82)"/><path d="M334.28,292h21.53a3.64,3.64,0,0,1,3.59,3.69v22.12a3.64,3.64,0,0,1-3.59,3.69H334.28a3.64,3.64,0,0,1-3.59-3.69V295.71A3.64,3.64,0,0,1,334.28,292Z" transform="translate(-48.54 -47.82)"/><path d="M341.45,225.65h14.36a3.64,3.64,0,0,1,3.59,3.69v14.75a3.64,3.64,0,0,1-3.59,3.68H341.45a3.64,3.64,0,0,1-3.59-3.68V229.34A3.64,3.64,0,0,1,341.45,225.65Z" transform="translate(-48.54 -47.82)"/><path d="M269.68,299.4H284a3.64,3.64,0,0,1,3.59,3.68v14.75a3.64,3.64,0,0,1-3.59,3.69H269.68a3.64,3.64,0,0,1-3.59-3.69V303.08A3.64,3.64,0,0,1,269.68,299.4Z" transform="translate(-48.54 -47.82)"/><path d="M298.39,144.53H327.1a3.64,3.64,0,0,1,3.59,3.69v29.5a3.64,3.64,0,0,1-3.59,3.68H298.39a3.64,3.64,0,0,1-3.59-3.68v-29.5A3.64,3.64,0,0,1,298.39,144.53Z" transform="translate(-48.54 -47.82)"/><path class="cls-1" d="M280.45,122.41H345a7.28,7.28,0,0,1,7.18,7.37v66.37a7.28,7.28,0,0,1-7.18,7.38H280.45a7.28,7.28,0,0,1-7.18-7.38V129.78A7.27,7.27,0,0,1,280.45,122.41Z" transform="translate(-48.54 -47.82)"/><path d="M190.74,144.53h28.7a3.64,3.64,0,0,1,3.59,3.69v29.5a3.63,3.63,0,0,1-3.59,3.68h-28.7a3.63,3.63,0,0,1-3.59-3.68v-29.5A3.64,3.64,0,0,1,190.74,144.53Z" transform="translate(-48.54 -47.82)"/><path class="cls-1" d="M172.79,122.41h64.6a7.27,7.27,0,0,1,7.17,7.37v66.37a7.27,7.27,0,0,1-7.17,7.38h-64.6a7.27,7.27,0,0,1-7.17-7.38V129.78A7.27,7.27,0,0,1,172.79,122.41Z" transform="translate(-48.54 -47.82)"/><path d="M190.74,255.15h28.7a3.64,3.64,0,0,1,3.59,3.69v29.49a3.64,3.64,0,0,1-3.59,3.69h-28.7a3.64,3.64,0,0,1-3.59-3.69V258.84A3.64,3.64,0,0,1,190.74,255.15Z" transform="translate(-48.54 -47.82)"/><path class="cls-1" d="M172.79,233h64.6a7.27,7.27,0,0,1,7.17,7.37v66.37a7.27,7.27,0,0,1-7.17,7.37h-64.6a7.27,7.27,0,0,1-7.17-7.37V240.4A7.27,7.27,0,0,1,172.79,233Z" transform="translate(-48.54 -47.82)"/></g></svg>